<?xml version="1.0" encoding="utf-8"?>
<!-- Generator: Adobe Illustrator 26.0.1, SVG Export Plug-In . SVG Version: 6.00 Build 0)  -->
<svg version="1.1" id="レイヤー_1" xmlns="http://www.w3.org/2000/svg" xmlns:xlink="http://www.w3.org/1999/xlink" x="0px"
	 y="0px" viewBox="0 0 345.1 51.1" style="enable-background:new 0 0 345.1 51.1;" xml:space="preserve">
<style type="text/css">
	.st0{fill:#0F3BB9;}
	.st1{fill:#FF5E00;}
	.st2{fill:#FFA600;}
	.st3{fill:#B600D0;}
	.st4{fill:#00FF00;}
	.st5{fill:#FF00C2;}
	.st6{fill:#00FFFF;}
</style>
<path class="st0" d="M46.2,20.3c2.3,2.9,3.1,5.8,2.3,8.7c-1.2,4.8-3.7,8.1-7.5,9.9c-6.3,2.9-15.6,3.1-28,0.6l-0.2-5.6
	c11.6,2.2,19.5,2.4,23.7,0.5c2.5-1.2,4.1-3.1,4.8-5.6c1.3-4.4-1.2-7.6-7.3-9.5c-5.6-1.6-16.1-1.9-31.4-0.7l-1.1-6
	c3.2,0.1,6.9,0.1,11.2-0.1c9.1-0.3,16.4,0.2,22,1.4C39.8,14.9,43.7,17.1,46.2,20.3z"/>
<path class="st1" d="M75.2,8.4l4.9,2.8c1.3,0.8,1.1,1.5-0.8,2.2c-1.4,3.4-2.9,6.8-4.3,10.1c4.6,0.2,9.3,0.7,14,1.6
	c-0.1-3.7-0.4-7.3-0.8-10.5l6.1,0.5c1.1,0.2,1.7,0.4,1.9,0.8c0,0.4-0.3,0.6-1.1,0.8c0.3,2.3,0.4,5.5,0.3,9.6
	c3.3,0.7,6.9,1.8,10.7,3.3l-2.9,4.9c-2.9-1.1-5.7-2.1-8.6-2.9c-1.4,5.3-4.3,9.9-8.6,13.9l-5.8-3.1c4.1-3.2,6.8-7.3,8.3-12.2
	C83,29,77.8,28.4,73,28.4c-0.6,1.9-1.8,4.3-3.6,7.4c-1.1,1.9-2.6,3.7-4.4,5.4c-1.4,1.3-3.3,2.1-5.6,2.2c-1.8,0.1-3.6-0.4-5.2-1.5
	c-1.8-1.2-2.8-2.9-3-5.1c-0.2-2.9,1-5.6,3.8-8.1c3.3-3,7.9-4.7,13.7-5.2c0.9-1.9,2.1-4.9,3.5-9c-3.5,0.8-7.5,1.9-12.1,3l-2.5-5.1
	c2.5-0.2,5.4-0.6,8.9-1.4c2.4-0.5,4.4-1,5.9-1.5C73.4,9.4,74.3,9,75.2,8.4z M59,38.3c0.9,0.1,2-0.7,3.3-2.2c1.5-2.3,2.9-4.7,4.3-7.2
	c-6,0.9-9.1,3.4-9.4,7.6C57.1,37.5,57.7,38.1,59,38.3z"/>
<path class="st2" d="M133.9,8.2c0.2,0.5,0,0.9-0.8,1.2c-0.1,1.5,0.4,3.2,1.5,5.1c5.3-1.2,9.2-2.3,11.9-3.4l2.6,4.6
	c-3.6,1.2-7.4,2.3-11.7,3.2c0.8,1,1.5,2,2.3,3c5.3-1.2,10-2.7,14.3-4.6l3.1,4.9c-5.7,1.7-10,3-13,3.8c3.6,2.5,6.7,4.2,9.2,5.2
	l-4.2,4.4c-3.1-0.2-5.6-0.2-7.5-0.1c-2.3,0.1-4.6,0.3-6.9,0.6c-2,0.3-3.7,0.6-5.2,0.9c-1.8,0.4-3.2,0.9-4.2,1.7
	c-1,0.7-1.4,1.7-1.2,2.9c0.4,2.6,3.9,3.5,10.4,2.6l15.6-2.1l-0.2,5.2l-17.6,2.4c-4.4,0.6-8.1,0-11-1.6c-2.4-1.4-3.7-3.1-4-5.1
	c-0.3-2,0.3-3.9,2-5.6c1.1-1.1,2.5-2.1,4.2-2.9c3.9-1.9,9.8-3,17.7-3.5c-0.9-0.7-2.1-1.7-3.5-3c-8.3,1.7-16.5,3.2-24.6,4.4l-1.5-5.1
	c7.4-0.7,14.6-1.9,21.7-3.4c-0.6-1-1.3-2-2.1-3c-7.4,1.5-13.5,2.5-18.2,3l-1.2-5c8.1-0.8,13.7-1.6,16.7-2.4c-1-2.4-1.9-4.9-2.7-7.3
	l5.7-0.8C132.9,7.8,133.8,7.9,133.9,8.2z"/>
<path class="st3" d="M168.5,12.6c5.1,2.5,9.2,4.9,12.3,7.2l-4.3,3.9c-3-2.3-6.9-4.7-11.6-7.3L168.5,12.6z M174.1,39.3
	c-0.1,0.7-0.5,1.2-1.2,1.4c-0.6,0.1-1.2-0.4-1.7-1.6l-2.6-4.9c9.4-1.2,17.3-3.3,23.6-6.3c6.2-3,11.4-6.9,15.4-11.7l4.3,3.6
	C204.6,30,192,36.5,174.1,39.3z M184,13.4c-3.1-2.4-7-4.8-11.6-7.3l3.6-3.9c4.4,2,8.5,4.4,12.3,7.4L184,13.4z"/>
<path class="st4" d="M245.5,49.2l-5.8,0v-1.7l-20.3,0l0-4.7l20.1,0l0-5.6l-18.8,0l0-4.7l18.8,0l0-5.3l-20.1,0l0-4.7l26.1-0.1
	L245.5,49.2z"/>
<path class="st5" d="M257.9,32.5c-0.6-2.9-1.7-6.3-3.2-10.1l5.1-0.9c1.6,3.5,2.8,6.7,3.5,9.6L257.9,32.5z M289.4,28.5
	c-0.1,0.3-0.4,0.4-1.1,0.3c-3,7.7-6.8,12.6-11.3,14.8c-4.9,2.4-10.8,3.8-17.6,4.4l-2.6-5.1c6.9-0.3,12.4-1.4,16.7-3.2
	c4.2-2.1,7.4-7,9.6-14.9l5,2.3C289,27.6,289.5,28.1,289.4,28.5z M274.1,31.4l-5.7,0.8c-1-3.6-2.1-6.9-3.2-9.9l5.1-0.9
	C271.8,24,273.1,27.3,274.1,31.4z"/>
<path class="st6" d="M336,14.5c0.7,0.4,0.5,0.7-0.6,0.8c0.5,8.5-1.7,15.5-6.6,20.9C324,41.4,316.6,46,306.7,50l-4.8-4.6
	c19-6.5,27.8-15.7,26.4-27.7l-34.4,4.5L293,17l35.6-4.6l1.1-0.9L336,14.5z M340.9,2.1c1.5,1,2.4,2.3,2.6,3.9s-0.3,3.1-1.5,4.4
	c-1.2,1.3-2.9,2.1-4.8,2.4c-2,0.3-3.8-0.1-5.3-1c-1.5-1-2.4-2.2-2.6-3.9c-0.2-1.6,0.3-3.1,1.5-4.4c1.2-1.3,2.8-2.1,4.8-2.4
	C337.6,0.8,339.3,1.1,340.9,2.1z M339.2,8.7c0.5-0.6,0.8-1.3,0.6-2.2c-0.1-0.8-0.5-1.3-1.2-1.8c-0.9-0.5-1.7-0.7-2.7-0.6
	c-0.9,0.1-1.7,0.5-2.2,1.1c-0.7,0.7-1,1.5-0.9,2.2c0.1,0.8,0.6,1.4,1.4,1.9c0.7,0.4,1.5,0.6,2.4,0.5C337.8,9.6,338.6,9.2,339.2,8.7z
	"/>
</svg>
